<?xml version="1.0" encoding="UTF-8"?>
<svg width="782px" height="100px" viewBox="0 0 782 100" version="1.1" xmlns="http://www.w3.org/2000/svg" xmlns:xlink="http://www.w3.org/1999/xlink">
    <!-- Generator: Sketch 41.2 (35397) - http://www.bohemiancoding.com/sketch -->
    <title>Group 4</title>
    <desc>Created with Sketch.</desc>
    <defs></defs>
    <g id="Page-1" stroke="none" stroke-width="1" fill="none" fill-rule="evenodd">
        <g id="Group-4" transform="translate(-1.000000, 0.000000)">
            <path d="M776.254443,3.92798691 L771.729269,14.3379951 L767.204095,3.92798691 L761.184842,3.92798691 L761.184842,22.9001634 L766.105551,22.9001634 L766.105551,11.8594039 L769.883685,21.0526967 L773.574489,21.0526967 L777.352988,11.8594039 L777.352988,22.9001634 L782.273696,22.9001634 L782.273696,3.92798691 L776.254443,3.92798691 Z M744.005847,3.92798691 L744.005847,8.47947299 L748.882526,8.47947299 L748.882526,22.9001634 L754.374521,22.9001634 L754.374521,8.47947299 L759.295229,8.47947299 L759.295229,3.92798691 L744.005847,3.92798691 Z" id="Page-1" fill="#FFFFFF"></path>
            <g id="logo">
                <path d="M561.394105,13.2498054 C561.62017,13.5089744 561.941248,13.658039 562.278707,13.658039 C562.616166,13.658039 562.938882,13.5089744 563.163308,13.2498054 L571.24267,3.53181338 C571.557195,3.17100942 571.635826,2.65267134 571.444163,2.20886554 C571.252499,1.76675365 570.828218,1.48048196 570.358069,1.48048196 L554.199345,1.48048196 C553.730834,1.48048196 553.304914,1.76675365 553.114889,2.20886554 C552.923225,2.65267134 553.001856,3.17100942 553.314743,3.53181338 L561.394105,13.2498054 Z M577.088904,80.4526761 L563.488973,17.7998313 C563.320243,17.2577784 562.830436,16.8901987 562.280017,16.8901987 C561.72796,16.8901987 561.238153,17.2577784 561.069424,17.7998313 L547.469492,80.4526761 C547.310592,80.9591567 547.461301,81.5147609 547.854458,81.8603197 L561.454389,98.1794996 C561.691921,98.3878511 561.98515,98.4928739 562.280017,98.4928739 C562.573246,98.4928739 562.866475,98.3878511 563.104007,98.1794996 L576.703939,81.8603197 C577.095457,81.5147609 577.247805,80.9591567 577.088904,80.4526761 Z" id="Fill-1" fill="#FE3A35"></path>
                <path d="M67.8717314,73.5398078 C67.8717314,88.4073023 53.6280066,99.9411715 34.5451832,99.9411715 C21.3760857,99.9411715 11.9698214,97.3003575 2.16057202,92.2982257 C1.21863508,91.7426215 0.815649879,90.492512 1.21863508,89.5202046 L4.7128116,82.0161599 C5.25012519,80.9049514 6.46071894,80.4882483 7.53534613,80.9049514 C15.3296696,84.6552799 23.9299634,87.2960938 33.470556,87.2960938 C43.9514474,87.2960938 53.4936782,81.8772588 53.4936782,73.4009067 C53.4936782,46.999543 1.21863508,61.7281364 1.21863508,26.8521146 C1.21863508,10.0383114 13.4474338,0.032353782 30.5136931,0.032353782 C35.755777,0.032353782 47.7142808,0.86745402 60.8833783,6.9807943 C61.9596437,7.39749746 62.3626288,8.64760694 61.9596437,9.76050929 L58.4654671,17.6795633 C58.0624819,18.7924656 56.8518882,19.3480698 55.777261,18.9313667 C49.1935313,16.2905527 39.2483153,13.3719367 33.6048844,13.3719367 C23.6613066,13.3719367 15.7326548,15.4571464 15.0610128,25.7392122 C15.0610128,48.1107514 67.8717314,35.3267727 67.8717314,73.5398078 M151.718207,3.64581388 C151.718207,2.53460545 152.658506,1.56229807 153.733133,1.56229807 L163.544021,1.56229807 C164.618648,1.56229807 165.558947,2.53460545 165.558947,3.64581388 L165.558947,98.2730037 C165.558947,98.967509 165.021633,99.5248071 164.349991,99.5248071 C163.544021,99.5248071 162.872379,99.247005 162.333427,98.5508058 L103.341964,33.1046947 L103.207636,96.7450921 C103.207636,97.8563005 102.267337,98.8286079 101.191072,98.8286079 L91.3818222,98.8286079 C90.307195,98.8286079 89.3652581,97.8563005 89.3652581,96.7450921 L89.3652581,1.97900123 C89.3652581,1.14390099 89.9042098,0.58829678 90.5758518,0.58829678 C91.3818222,0.58829678 92.1877926,1.00499994 92.7251062,1.56229807 L151.718207,66.591706 L151.718207,3.64581388 Z M212.854502,60.7559985 L237.849413,60.7559985 L225.351957,28.6579976 L212.854502,60.7559985 Z M242.686874,73.123274 L208.017041,73.123274 L198.879434,96.7449227 C198.34212,97.9950322 197.265855,98.6912314 196.056899,98.6912314 L185.038694,98.6912314 C184.096757,98.6912314 183.425115,97.7172301 183.828101,96.7449227 L222.663751,2.395535 C223.201065,1.28432657 224.143002,0.588127388 225.351957,0.588127388 C226.426585,0.588127388 227.501212,1.28432657 227.905835,2.395535 L266.875814,96.7449227 C267.278799,97.7172301 266.607157,98.6912314 265.66522,98.6912314 L254.647015,98.6912314 C253.436422,98.6912314 252.361795,97.9950322 251.824481,96.7449227 L242.686874,73.123274 Z M339.028184,31.9924699 C339.028184,25.7402286 335.804303,13.9285572 320.887298,13.9285572 L298.983578,13.9285572 L298.983578,50.0563825 L321.424611,50.0563825 C335.804303,49.7785804 339.028184,37.689107 339.028184,31.9924699 L339.028184,31.9924699 Z M298.983578,96.7457697 C298.983578,97.8569781 298.043279,98.8292855 296.968652,98.8292855 L287.157764,98.8292855 C286.083137,98.8292855 285.142838,97.8569781 285.142838,96.7457697 L285.142838,3.64649144 C285.142838,2.5335891 286.083137,1.56128172 287.157764,1.56128172 L320.215656,1.56128172 C345.343257,1.56128172 352.868924,19.6251944 352.868924,31.9924699 C352.868924,50.4730857 337.013258,62.7014602 322.097891,62.7014602 L298.983578,62.7014602 L298.983578,96.7457697 Z M436.447071,73.5398078 C436.447071,88.4073023 422.203346,99.9411715 403.120522,99.9411715 C389.951425,99.9411715 380.545161,97.3003575 370.735911,92.2982257 C369.793974,91.7426215 369.390989,90.492512 369.793974,89.5202046 L373.288151,82.0161599 C373.825464,80.9049514 375.036058,80.4882483 376.110685,80.9049514 C383.905009,84.6552799 392.505303,87.2960938 402.045895,87.2960938 C412.526787,87.2960938 422.069017,81.8772588 422.069017,73.4009067 C422.069017,46.999543 369.793974,61.7281364 369.793974,26.8521146 C369.793974,10.0383114 382.022773,0.032353782 399.089032,0.032353782 C404.331116,0.032353782 416.28962,0.86745402 429.458717,6.9807943 C430.534983,7.39749746 430.937968,8.64760694 430.534983,9.76050929 L427.040806,17.6795633 C426.637821,18.7924656 425.427227,19.3480698 424.3526,18.9313667 C417.76887,16.2905527 407.823655,13.3719367 402.180224,13.3719367 C392.236646,13.3719367 384.307994,15.4571464 383.636352,25.7392122 C383.636352,48.1107514 436.447071,35.3267727 436.447071,73.5398078 M515.858907,61.8675457 L515.858907,3.64598327 C515.858907,2.53477484 516.799206,1.56077355 517.873833,1.56077355 L527.819049,1.56077355 C528.893677,1.56077355 529.833975,2.53477484 529.833975,3.64598327 L529.833975,61.8675457 C529.833975,77.9868436 520.293383,99.8027786 493.149217,99.8027786 C466.003414,99.8027786 456.597149,77.9868436 456.597149,61.8675457 L456.597149,3.64598327 C456.597149,2.53477484 457.537448,1.56077355 458.613714,1.56077355 L468.288635,1.56077355 C469.363262,1.56077355 470.303561,2.53477484 470.303561,3.64598327 L470.303561,61.8675457 C470.303561,68.6770851 474.872364,87.4355031 493.149217,87.4355031 C511.424432,87.4355031 515.858907,68.6770851 515.858907,61.8675457 M615.960594,14.0674583 L590.697026,14.0674583 C589.622399,14.0674583 588.6821,13.0951509 588.6821,11.9839425 L588.6821,3.64649144 C588.6821,2.5335891 589.622399,1.56128172 590.697026,1.56128172 L655.333558,1.56128172 C656.408186,1.56128172 657.350123,2.5335891 657.350123,3.64649144 L657.350123,11.9839425 C657.350123,13.0951509 656.408186,14.0674583 655.333558,14.0674583 L629.801334,14.0674583 L629.801334,96.7457697 C629.801334,97.8569781 628.861035,98.8292855 627.786408,98.8292855 L617.97552,98.8292855 C616.900893,98.8292855 615.960594,97.8569781 615.960594,96.7457697 L615.960594,14.0674583 Z M736.227103,73.5398078 C736.227103,88.4073023 721.983378,99.9411715 702.900555,99.9411715 C689.731457,99.9411715 680.325193,97.3003575 670.515944,92.2982257 C669.574007,91.7426215 669.171022,90.492512 669.574007,89.5202046 L673.068183,82.0161599 C673.605497,80.9049514 674.816091,80.4882483 675.890718,80.9049514 C683.685041,84.6552799 692.285335,87.2960938 701.825928,87.2960938 C712.306819,87.2960938 721.84905,81.8772588 721.84905,73.4009067 C721.84905,46.999543 669.574007,61.7281364 669.574007,26.8521146 C669.574007,10.0383114 681.802806,0.032353782 698.869065,0.032353782 C704.111149,0.032353782 716.069653,0.86745402 729.23875,6.9807943 C730.315015,7.39749746 730.718001,8.64760694 730.315015,9.76050929 L726.820839,17.6795633 C726.417854,18.7924656 725.20726,19.3480698 724.132633,18.9313667 C717.548903,16.2905527 707.603687,13.3719367 701.960256,13.3719367 C692.016678,13.3719367 684.088027,15.4571464 683.416385,25.7392122 C683.416385,48.1107514 736.227103,35.3267727 736.227103,73.5398078" id="Fill-5" fill="#FFFFFF"></path>
            </g>
        </g>
    </g>
</svg>