<?xml version="1.0" encoding="UTF-8"?>
<svg width="184px" height="189px" viewBox="0 0 184 189" version="1.1" xmlns="http://www.w3.org/2000/svg" xmlns:xlink="http://www.w3.org/1999/xlink">
    <!-- Generator: Sketch 41.1 (35376) - http://www.bohemiancoding.com/sketch -->
    <title>Group 6</title>
    <desc>Created with Sketch.</desc>
    <defs>
        <path d="M61.2842105,73.7092105 L61.2842105,79.9664616 C61.2842105,80.380304 60.9544848,80.7157895 60.5314616,80.7157895 L0.752748888,80.7157895 C0.337017157,80.7157895 0,80.3820736 0,79.968276 L0,0.747513509 C0,0.334673198 0.329725775,0 0.752748888,0 L60.5314616,0 C60.9471934,0 61.2842105,0.331482481 61.2842105,0.752506178 L61.2842105,54.3710526" id="path-1"></path>
        <mask id="mask-2" maskContentUnits="userSpaceOnUse" maskUnits="objectBoundingBox" x="0" y="0" width="61.2842105" height="80.7157895" fill="white">
            <use xlink:href="#path-1"></use>
        </mask>
        <circle id="path-3" cx="25" cy="25" r="25"></circle>
    </defs>
    <g id="Weddings" stroke="none" stroke-width="1" fill="none" fill-rule="evenodd">
        <g id="5-weddings" transform="translate(-221.000000, -833.000000)">
            <g id="Group-6" transform="translate(222.000000, 834.000000)">
                <path d="M91.5,188 C142.034055,188 183,147.034055 183,96.5 C183,45.9659454 142.034055,5 91.5,5 C40.9659454,5 0,45.9659454 0,96.5 C0,147.034055 40.9659454,188 91.5,188 Z" id="Oval-110" fill="#F9F9F9"></path>
                <g id="Group-12" transform="translate(61.000000, 55.000000)">
                    <use id="Rectangle-92" stroke="#AAAAAA" mask="url(#mask-2)" stroke-width="2" stroke-linecap="round" opacity="0.61876166" xlink:href="#path-1"></use>
                    <path d="M53.6216612,66.5164012 L61.7737318,58.434658 L62.7527844,59.413038 L54.6673044,67.4976959 L53.655816,70.9496412 L54.3419749,71.635277 L57.650276,70.6642212 L65.8319423,62.4906265 L66.9305739,63.5870159 L58.7677412,71.6808665 C58.7347823,71.7295949 58.6959939,71.774437 58.6522728,71.813898 C58.5915118,71.8686802 58.5216328,71.9131486 58.4462234,71.9447623 C58.4126665,71.9588875 58.4037728,71.9609802 58.3691697,71.9721907 L52.5024023,73.6942023 C52.4671265,73.7034696 52.4583823,73.7065338 52.4224339,73.7128117 C52.3414939,73.726937 52.258237,73.7272359 52.1772223,73.7137086 C52.1096602,73.702498 52.043817,73.6816465 51.9820844,73.6520507 C51.9080202,73.6165507 51.8400844,73.5684202 51.7819391,73.5103496 C51.6751402,73.4036254 51.6033181,73.2640917 51.578356,73.1151412 C51.5648286,73.0341265 51.5651276,72.9508696 51.5791781,72.8699296 C51.585456,72.8339812 51.5885202,72.8253117 51.5977876,72.7900359 L53.3167349,66.9239412 C53.3278707,66.889338 53.3299634,66.8804444 53.3440139,66.8468875 C53.3598581,66.8092202 53.3788412,66.7728233 53.4007391,66.7382949 C53.4574644,66.6490591 53.533397,66.5733507 53.6216612,66.5164012 L53.6216612,66.5164012 Z M67.6779423,62.7687223 L62.5211002,57.615617 L63.702017,56.5101844 L68.8513855,61.6633644 L67.6779423,62.7687223 Z M69.4641528,60.7649528 L64.5240476,55.8255949 L65.2864381,55.0595423 C65.9590697,54.3854159 67.0576265,54.3914696 67.7377318,55.0730696 L70.2115212,57.5416275 C70.8917012,58.2239002 70.8991749,59.3233538 70.2189949,59.9974802 L69.4641528,60.7649528 Z" id="Page-1" fill="#FE3A35"></path>
                    <path d="M53.4613406,10.0894737 C53.8741008,10.0894737 54.208709,9.75486544 54.208709,9.34210526 C54.208709,8.92934508 53.8741008,8.59473684 53.4613406,8.59473684 L7.84736842,8.59473684 C7.43460824,8.59473684 7.1,8.92934508 7.1,9.34210526 C7.1,9.75486544 7.43460824,10.0894737 7.84736842,10.0894737 L53.4613406,10.0894737 Z" id="Line" fill="#AAAAAA"></path>
                    <path d="M53.4613406,16.8157895 C53.8741008,16.8157895 54.208709,16.4811812 54.208709,16.0684211 C54.208709,15.6556609 53.8741008,15.3210526 53.4613406,15.3210526 L7.84736842,15.3210526 C7.43460824,15.3210526 7.1,15.6556609 7.1,16.0684211 C7.1,16.4811812 7.43460824,16.8157895 7.84736842,16.8157895 L53.4613406,16.8157895 Z" id="Line" fill="#AAAAAA"></path>
                    <path d="M7.84736842,23.5421053 L53.4613406,23.5421053 C53.8741008,23.5421053 54.208709,23.207497 54.208709,22.7947368 C54.208709,22.3819767 53.8741008,22.0473684 53.4613406,22.0473684 L7.84736842,22.0473684 C7.43460824,22.0473684 7.1,22.3819767 7.1,22.7947368 C7.1,23.207497 7.43460824,23.5421053 7.84736842,23.5421053 L7.84736842,23.5421053 Z" id="Line" fill="#AAAAAA"></path>
                    <path d="M7.84736842,30.2684211 L53.4613406,30.2684211 C53.8741008,30.2684211 54.208709,29.9338128 54.208709,29.5210526 C54.208709,29.1082925 53.8741008,28.7736842 53.4613406,28.7736842 L7.84736842,28.7736842 C7.43460824,28.7736842 7.1,29.1082925 7.1,29.5210526 C7.1,29.9338128 7.43460824,30.2684211 7.84736842,30.2684211 L7.84736842,30.2684211 Z" id="Line" fill="#AAAAAA"></path>
                    <path d="M7.84736842,36.9947368 L53.4613406,36.9947368 C53.8741008,36.9947368 54.208709,36.6601286 54.208709,36.2473684 C54.208709,35.8346082 53.8741008,35.5 53.4613406,35.5 L7.84736842,35.5 C7.43460824,35.5 7.1,35.8346082 7.1,36.2473684 C7.1,36.6601286 7.43460824,36.9947368 7.84736842,36.9947368 L7.84736842,36.9947368 Z" id="Line" fill="#AAAAAA"></path>
                    <path d="M7.84736842,44.4684211 L30.3802481,44.4684211 C30.7930082,44.4684211 31.1276165,44.1338128 31.1276165,43.7210526 C31.1276165,43.3082925 30.7930082,42.9736842 30.3802481,42.9736842 L7.84736842,42.9736842 C7.43460824,42.9736842 7.1,43.3082925 7.1,43.7210526 C7.1,44.1338128 7.43460824,44.4684211 7.84736842,44.4684211 L7.84736842,44.4684211 Z" id="Line" fill="#AAAAAA"></path>
                </g>
                <g id="Group-25" transform="translate(5.000000, 0.000000)">
                    <g id="Oval-122">
                        <use stroke="#FFFFFF" stroke-width="12" fill="#FFFFFF" fill-rule="evenodd" xlink:href="#path-3"></use>
                        <use stroke="#FE433E" stroke-width="2" xlink:href="#path-3"></use>
                    </g>
                    <text id="1" font-family="Montserrat-Regular, Montserrat" font-size="14" font-weight="normal" fill="#FE3A35">
                        <tspan x="22.291" y="29">1</tspan>
                    </text>
                </g>
            </g>
        </g>
    </g>
</svg>