<?xml version="1.0" encoding="UTF-8"?>
<svg width="184px" height="189px" viewBox="0 0 184 189" version="1.1" xmlns="http://www.w3.org/2000/svg" xmlns:xlink="http://www.w3.org/1999/xlink">
    <!-- Generator: Sketch 41.1 (35376) - http://www.bohemiancoding.com/sketch -->
    <title>Group 22</title>
    <desc>Created with Sketch.</desc>
    <defs>
        <circle id="path-1" cx="25" cy="25" r="25"></circle>
    </defs>
    <g id="Weddings" stroke="none" stroke-width="1" fill="none" fill-rule="evenodd">
        <g id="5-weddings" transform="translate(-483.000000, -833.000000)">
            <g id="Group-22" transform="translate(483.000000, 834.000000)">
                <circle id="Oval-110-Copy" fill="#F9F9F9" cx="91.5" cy="96.5" r="91.5"></circle>
                <g id="Group-19" transform="translate(91.468037, 96.468037) rotate(-45.000000) translate(-91.468037, -96.468037) translate(44.468037, 49.468037)">
                    <path d="M64.8669202,65.0753926 L73.2701166,65.0753926 L73.2701166,73.478589 L64.8669202,73.478589 L64.8669202,65.0753926 Z M55.9977607,65.0753926 L64.4344049,65.0753926 L64.4344049,73.478589 L55.9977607,73.478589 L55.9977607,65.0753926 Z M47.1286012,65.0753926 L55.5652454,65.0753926 L55.5652454,73.478589 L47.1286012,73.478589 L47.1286012,65.0753926 Z M38.2594417,65.0753926 L46.6960859,65.0753926 L46.6960859,73.478589 L38.2594417,73.478589 L38.2594417,65.0753926 Z M29.3905706,65.0753926 L37.8272147,65.0753926 L37.8272147,73.478589 L29.3905706,73.478589 L29.3905706,65.0753926 Z M20.521411,65.0753926 L28.9580552,65.0753926 L28.9580552,73.478589 L20.521411,73.478589 L20.521411,65.0753926 Z M20.521411,56.2062331 L28.9580552,56.2062331 L28.9580552,64.6428773 L20.521411,64.6428773 L20.521411,56.2062331 Z M20.521411,47.320638 L28.9580552,47.320638 L28.9580552,55.7737178 L20.521411,55.7737178 L20.521411,47.320638 Z M20.521411,38.4682025 L28.9580552,38.4682025 L28.9580552,46.8881227 L20.521411,46.8881227 L20.521411,38.4682025 Z M20.521411,29.5990429 L28.9580552,29.5990429 L28.9580552,38.0356871 L20.521411,38.0356871 L20.521411,29.5990429 Z M20.521411,20.7301718 L28.9580552,20.7301718 L28.9580552,29.166816 L20.521411,29.166816 L20.521411,20.7301718 Z M37.8269264,29.1665276 L29.3902822,29.1665276 L29.3902822,20.7298834 L37.8269264,20.7298834 L37.8269264,29.1665276 Z M46.6960859,29.1665276 L38.2594417,29.1665276 L38.2594417,20.7298834 L46.6960859,20.7298834 L46.6960859,29.1665276 Z M55.5652454,29.1665276 L47.1286012,29.1665276 L47.1286012,20.7298834 L55.5652454,20.7298834 L55.5652454,29.1665276 Z M64.4344049,29.1665276 L55.9977607,29.1665276 L55.9977607,20.7298834 L64.4344049,20.7298834 L64.4344049,29.1665276 Z M73.2698282,29.1665276 L64.8666319,29.1665276 L64.8666319,20.7298834 L73.2698282,20.7298834 L73.2698282,29.1665276 Z M73.2698282,38.0356871 L64.8666319,38.0356871 L64.8666319,29.5990429 L73.2698282,29.5990429 L73.2698282,38.0356871 Z M73.2698282,46.8881227 L64.8666319,46.8881227 L64.8666319,38.4682025 L73.2698282,38.4682025 L73.2698282,46.8881227 Z M73.2698282,55.7737178 L64.8666319,55.7737178 L64.8666319,47.320638 L73.2698282,47.320638 L73.2698282,55.7737178 Z M55.9977607,56.2062331 L64.4344049,56.2062331 L64.4344049,64.6428773 L55.9977607,64.6428773 L55.9977607,56.2062331 Z M47.1286012,56.2062331 L55.5652454,56.2062331 L55.5652454,64.6428773 L47.1286012,64.6428773 L47.1286012,56.2062331 Z M38.2594417,56.2062331 L46.6960859,56.2062331 L46.6960859,64.6428773 L38.2594417,64.6428773 L38.2594417,56.2062331 Z M37.8269264,64.6428773 L29.3902822,64.6428773 L29.3902822,56.2062331 L37.8269264,56.2062331 L37.8269264,64.6428773 Z M37.8269264,55.7737178 L29.3902822,55.7737178 L29.3902822,47.320638 L37.8269264,47.320638 L37.8269264,55.7737178 Z M37.8269264,46.8881227 L29.3902822,46.8881227 L29.3902822,38.4682025 L37.8269264,38.4682025 L37.8269264,46.8881227 Z M37.8269264,38.0356871 L29.3902822,38.0356871 L29.3902822,29.5990429 L37.8269264,29.5990429 L37.8269264,38.0356871 Z M46.6960859,38.0356871 L38.2594417,38.0356871 L38.2594417,29.5990429 L46.6960859,29.5990429 L46.6960859,38.0356871 Z M55.5652454,38.0356871 L47.1286012,38.0356871 L47.1286012,29.5990429 L55.5652454,29.5990429 L55.5652454,38.0356871 Z M55.9977607,29.5990429 L64.4344049,29.5990429 L64.4344049,38.0356871 L55.9977607,38.0356871 L55.9977607,29.5990429 Z M55.9977607,38.4682025 L64.4344049,38.4682025 L64.4344049,46.8881227 L55.9977607,46.8881227 L55.9977607,38.4682025 Z M55.9977607,47.320638 L64.4344049,47.320638 L64.4344049,55.7737178 L55.9977607,55.7737178 L55.9977607,47.320638 Z M47.1286012,47.320638 L55.5652454,47.320638 L55.5652454,55.7737178 L47.1286012,55.7737178 L47.1286012,47.320638 Z M46.6960859,55.7737178 L38.2594417,55.7737178 L38.2594417,47.320638 L46.6960859,47.320638 L46.6960859,55.7737178 Z M47.1286012,38.4682025 L55.5652454,38.4682025 L55.5652454,46.8881227 L47.1286012,46.8881227 L47.1286012,38.4682025 Z M46.6960859,46.8881227 L38.2594417,46.8881227 L38.2594417,38.4682025 L46.6960859,38.4682025 L46.6960859,46.8881227 Z M73.2698282,64.6428773 L64.8666319,64.6428773 L64.8666319,56.2062331 L73.2698282,56.2062331 L73.2698282,64.6428773 Z M93.5749816,73.478589 L73.7023436,73.478589 L73.7023436,65.0753926 L76.2743681,65.0753926 C76.3937423,65.0753926 76.4906258,64.9785092 76.4906258,64.859135 C76.4906258,64.7397607 76.3937423,64.6428773 76.2743681,64.6428773 L73.7023436,64.6428773 L73.7023436,56.2062331 L76.2743681,56.2062331 C76.3937423,56.2062331 76.4906258,56.1093497 76.4906258,55.9899755 C76.4906258,55.8706012 76.3937423,55.7737178 76.2743681,55.7737178 L73.7023436,55.7737178 L73.7023436,47.320638 L76.2743681,47.320638 C76.3937423,47.320638 76.4906258,47.2237546 76.4906258,47.1043804 C76.4906258,46.9850061 76.3937423,46.8881227 76.2743681,46.8881227 L73.7023436,46.8881227 L73.7023436,38.4682025 L76.2743681,38.4682025 C76.3937423,38.4682025 76.4906258,38.371319 76.4906258,38.2519448 C76.4906258,38.1325706 76.3937423,38.0356871 76.2743681,38.0356871 L73.7023436,38.0356871 L73.7023436,29.5990429 L76.2743681,29.5990429 C76.3937423,29.5990429 76.4906258,29.5021595 76.4906258,29.3827853 C76.4906258,29.263411 76.3937423,29.1665276 76.2743681,29.1665276 L73.7023436,29.1665276 L73.7023436,20.7301718 L93.5749816,20.7301718 C93.6943558,20.7301718 93.7912393,20.6332883 93.7912393,20.5139141 C93.7912393,20.3942515 93.6943558,20.2976564 93.5749816,20.2976564 L73.7023436,20.2976564 L73.7023436,0.425018405 C73.7023436,0.305644172 73.6057485,0.208760736 73.4860859,0.208760736 C73.3667117,0.208760736 73.2698282,0.305644172 73.2698282,0.425018405 L73.2698282,20.2976564 L64.8669202,20.2976564 L64.8669202,17.7256319 C64.8669202,17.6062577 64.7700368,17.5093742 64.6506626,17.5093742 C64.5312883,17.5093742 64.4344049,17.6062577 64.4344049,17.7256319 L64.4344049,20.2976564 L55.9977607,20.2976564 L55.9977607,17.7256319 C55.9977607,17.6062577 55.9008773,17.5093742 55.7815031,17.5093742 C55.6621288,17.5093742 55.5652454,17.6062577 55.5652454,17.7256319 L55.5652454,20.2976564 L47.1286012,20.2976564 L47.1286012,17.7256319 C47.1286012,17.6062577 47.0317178,17.5093742 46.9123436,17.5093742 C46.7929693,17.5093742 46.6960859,17.6062577 46.6960859,17.7256319 L46.6960859,20.2976564 L38.2594417,20.2976564 L38.2594417,17.7256319 C38.2594417,17.6062577 38.1628466,17.5093742 38.043184,17.5093742 C37.9238098,17.5093742 37.8269264,17.6062577 37.8269264,17.7256319 L37.8269264,20.2976564 L29.3905706,20.2976564 L29.3905706,17.7256319 C29.3905706,17.6062577 29.2936871,17.5093742 29.1743129,17.5093742 C29.0549387,17.5093742 28.9580552,17.6062577 28.9580552,17.7256319 L28.9580552,20.2976564 L20.521411,20.2976564 L20.521411,0.425018405 C20.521411,0.305644172 20.4245276,0.208760736 20.3051534,0.208760736 C20.1857791,0.208760736 20.0888957,0.305644172 20.0888957,0.425018405 L20.0888957,20.2976564 L0.216257669,20.2976564 C0.0968834356,20.2976564 -2.27373675e-13,20.3942515 -2.27373675e-13,20.5139141 C-2.27373675e-13,20.6332883 0.0968834356,20.7301718 0.216257669,20.7301718 L20.0888957,20.7301718 L20.0888957,29.1665276 L17.5168712,29.1665276 C17.3974969,29.1665276 17.3006135,29.263411 17.3006135,29.3827853 C17.3006135,29.5021595 17.3974969,29.5990429 17.5168712,29.5990429 L20.0888957,29.5990429 L20.0888957,38.0356871 L17.5168712,38.0356871 C17.3974969,38.0356871 17.3006135,38.1325706 17.3006135,38.2519448 C17.3006135,38.371319 17.3974969,38.4682025 17.5168712,38.4682025 L20.0888957,38.4682025 L20.0888957,46.8881227 L17.5168712,46.8881227 C17.3974969,46.8881227 17.3006135,46.9850061 17.3006135,47.1043804 C17.3006135,47.2237546 17.3974969,47.320638 17.5168712,47.320638 L20.0888957,47.320638 L20.0888957,55.7737178 L17.5168712,55.7737178 C17.3974969,55.7737178 17.3006135,55.8706012 17.3006135,55.9899755 C17.3006135,56.1093497 17.3974969,56.2062331 17.5168712,56.2062331 L20.0888957,56.2062331 L20.0888957,64.6428773 L17.5168712,64.6428773 C17.3974969,64.6428773 17.3006135,64.7397607 17.3006135,64.859135 C17.3006135,64.9785092 17.3974969,65.0753926 17.5168712,65.0753926 L20.0888957,65.0753926 L20.0888957,73.478589 L0.216257669,73.478589 C0.0968834356,73.478589 -2.27373675e-13,73.5754724 -2.27373675e-13,73.6948466 C-2.27373675e-13,73.8142209 0.0968834356,73.9111043 0.216257669,73.9111043 L20.0888957,73.9111043 L20.0888957,93.7837423 C20.0888957,93.9031166 20.1857791,94 20.3051534,94 C20.4245276,94 20.521411,93.9031166 20.521411,93.7837423 L20.521411,73.9111043 L28.9580552,73.9111043 L28.9580552,76.4831288 C28.9580552,76.6025031 29.0549387,76.6993865 29.1743129,76.6993865 C29.2936871,76.6993865 29.3905706,76.6025031 29.3905706,76.4831288 L29.3905706,73.9111043 L37.8269264,73.9111043 L37.8269264,76.4831288 C37.8269264,76.6025031 37.9238098,76.6993865 38.043184,76.6993865 C38.1628466,76.6993865 38.2594417,76.6025031 38.2594417,76.4831288 L38.2594417,73.9111043 L46.6960859,73.9111043 L46.6960859,76.4831288 C46.6960859,76.6025031 46.7929693,76.6993865 46.9123436,76.6993865 C47.0317178,76.6993865 47.1286012,76.6025031 47.1286012,76.4831288 L47.1286012,73.9111043 L55.5652454,73.9111043 L55.5652454,76.4831288 C55.5652454,76.6025031 55.6621288,76.6993865 55.7815031,76.6993865 C55.9008773,76.6993865 55.9977607,76.6025031 55.9977607,76.4831288 L55.9977607,73.9111043 L64.4344049,73.9111043 L64.4344049,76.4831288 C64.4344049,76.6025031 64.5312883,76.6993865 64.6506626,76.6993865 C64.7700368,76.6993865 64.8669202,76.6025031 64.8669202,76.4831288 L64.8669202,73.9111043 L73.2698282,73.9111043 L73.2698282,93.7837423 C73.2698282,93.9031166 73.3667117,94 73.4860859,94 C73.6057485,94 73.7023436,93.9031166 73.7023436,93.7837423 L73.7023436,73.9111043 L93.5749816,73.9111043 C93.6943558,73.9111043 93.7912393,73.8142209 93.7912393,73.6948466 C93.7912393,73.5754724 93.6943558,73.478589 93.5749816,73.478589 L93.5749816,73.478589 Z" id="Fill-1" fill="#AAAAAA"></path>
                    <path d="M47.1286012,38.4682025 L55.5652454,38.4682025 L55.5652454,46.9045583 L47.1286012,46.9045583 L47.1286012,38.4682025 Z M55.5652454,55.7737178 L47.1286012,55.7737178 L47.1286012,47.3370736 L55.5652454,47.3370736 L55.5652454,55.7737178 Z M46.6960859,55.7737178 L38.2594417,55.7737178 L38.2594417,47.3370736 L46.6960859,47.3370736 L46.6960859,55.7737178 Z M38.2594417,38.4682025 L46.6960859,38.4682025 L46.6960859,46.9045583 L38.2594417,46.9045583 L38.2594417,38.4682025 Z M47.1286012,38.0356871 L46.6960859,38.0356871 L37.8269264,38.0356871 L37.8269264,46.9045583 L37.8269264,47.3370736 L37.8269264,56.2062331 L46.6960859,56.2062331 L47.1286012,56.2062331 L55.9977607,56.2062331 L55.9977607,47.3370736 L55.9977607,46.9045583 L55.9977607,38.0356871 L47.1286012,38.0356871 Z" id="Fill-3" fill="#FE3A35"></path>
                </g>
                <g id="Group-20" transform="translate(5.000000, 0.000000)">
                    <g id="Group-13">
                        <g id="Oval-122">
                            <use stroke="#FFFFFF" stroke-width="12" fill="#FFFFFF" fill-rule="evenodd" xlink:href="#path-1"></use>
                            <use stroke="#FE433E" stroke-width="2" xlink:href="#path-1"></use>
                        </g>
                        <text id="2" font-family="Montserrat-Regular, Montserrat" font-size="14" font-weight="normal" fill="#FE3A35">
                            <tspan x="20.884" y="29">2</tspan>
                        </text>
                    </g>
                </g>
            </g>
        </g>
    </g>
</svg>