<?xml version="1.0" encoding="UTF-8"?>
<svg width="184px" height="189px" viewBox="0 0 184 189" version="1.1" xmlns="http://www.w3.org/2000/svg" xmlns:xlink="http://www.w3.org/1999/xlink">
    <!-- Generator: Sketch 41.1 (35376) - http://www.bohemiancoding.com/sketch -->
    <title>Group 23</title>
    <desc>Created with Sketch.</desc>
    <defs>
        <circle id="path-1" cx="25" cy="25" r="25"></circle>
    </defs>
    <g id="Weddings" stroke="none" stroke-width="1" fill="none" fill-rule="evenodd">
        <g id="5-weddings" transform="translate(-762.000000, -833.000000)">
            <g id="Group-23" transform="translate(763.000000, 834.000000)">
                <path d="M91.5,188 C142.034055,188 183,147.034055 183,96.5 C183,45.9659454 142.034055,5 91.5,5 C40.9659454,5 0,45.9659454 0,96.5 C0,147.034055 40.9659454,188 91.5,188 Z" id="Oval-110-Copy-2" fill="#F9F9F9"></path>
                <g id="Group-18" transform="translate(4.000000, 0.000000)">
                    <g id="Group-13">
                        <g id="Oval-122">
                            <use stroke="#FFFFFF" stroke-width="12" fill="#FFFFFF" fill-rule="evenodd" xlink:href="#path-1"></use>
                            <use stroke="#FE433E" stroke-width="2" xlink:href="#path-1"></use>
                        </g>
                        <text id="3" font-family="Montserrat-Regular, Montserrat" font-size="14" font-weight="normal" fill="#FE3A35">
                            <tspan x="21.227" y="29">3</tspan>
                        </text>
                    </g>
                </g>
                <g id="Group-9" transform="translate(49.000000, 48.000000)" stroke-linecap="round" fill="#EBEBEB" stroke-linejoin="round">
                    <g id="Group-16" transform="translate(0.000000, 21.250000)">
                        <g id="Group-15" stroke="#AAAAAA">
                            <path d="M0.102609205,25.9019466 L0.102609205,50.7742688 C0.102609205,51.8775482 0.859684459,52.3036418 1.79795544,51.7232717 L42.6796913,26.4357599 L1.79795544,1.15097004 C0.861641567,0.571872825 0.102609205,0.990499819 0.102609205,2.10539921 L0.102609205,25.9019466 Z" id="Stroke-1"></path>
                            <path d="M84.5699512,25.9755357 L84.5699512,50.8478579 C84.5699512,51.9511372 83.8070383,52.3658355 82.8757658,51.780292 L42.6758624,26.5043461 L82.8757658,1.24072148 C83.8114386,0.652698034 84.5699512,1.06408889 84.5699512,2.17898828 L84.5699512,25.9755357 Z" id="Stroke-2"></path>
                        </g>
                        <polygon id="Stroke-4" stroke="#FE3A35" stroke-width="1.5" points="33.9665027 35.0913297 51.7569956 35.0913297 51.7569956 17.3333335 33.9665027 17.3333335"></polygon>
                    </g>
                    <g id="Group-16-Copy" transform="translate(21.250000, 0.000000)">
                        <g id="Group-15" stroke="#AAAAAA">
                            <path d="M0.0528135613,13.5676863 L0.0528135613,25.6408192 C0.0528135613,26.7462844 0.807166264,27.1675811 1.74509917,26.5771587 L21.9674881,13.8473028 L1.74509917,1.11881708 C0.810475634,0.530541272 0.0528135613,0.940343202 0.0528135613,2.04769218 L0.0528135613,13.5676863 Z" id="Stroke-1"></path>
                            <path d="M43.5286514,13.606233 L43.5286514,25.6793658 C43.5286514,26.784831 42.7738516,27.1980084 41.8366284,26.5983007 L21.9655174,13.8832289 L41.8366284,1.17435537 C42.7711069,0.576695338 43.5286514,0.978889858 43.5286514,2.08623883 L43.5286514,13.606233 Z" id="Stroke-2"></path>
                        </g>
                        <polygon id="Stroke-4" stroke="#FE3A35" stroke-width="1.5" points="17.4827587 18.3811727 26.6396301 18.3811727 26.6396301 9.07936514 17.4827587 9.07936514"></polygon>
                    </g>
                    <g id="Group-16-Copy-2" transform="translate(21.250000, 67.500000)">
                        <g id="Group-15" stroke="#AAAAAA">
                            <path d="M0.0528135613,13.5676863 L0.0528135613,25.6408192 C0.0528135613,26.7462844 0.807166264,27.1675811 1.74509917,26.5771587 L21.9674881,13.8473028 L1.74509917,1.11881708 C0.810475634,0.530541272 0.0528135613,0.940343202 0.0528135613,2.04769218 L0.0528135613,13.5676863 Z" id="Stroke-1"></path>
                            <path d="M43.5286514,13.606233 L43.5286514,25.6793658 C43.5286514,26.784831 42.7738516,27.1980084 41.8366284,26.5983007 L21.9655174,13.8832289 L41.8366284,1.17435537 C42.7711069,0.576695338 43.5286514,0.978889858 43.5286514,2.08623883 L43.5286514,13.606233 Z" id="Stroke-2"></path>
                        </g>
                        <polygon id="Stroke-4" stroke="#FE3A35" stroke-width="1.5" points="17.4827587 18.3811727 26.6396301 18.3811727 26.6396301 9.07936514 17.4827587 9.07936514"></polygon>
                    </g>
                </g>
            </g>
        </g>
    </g>
</svg>