<?xml version="1.0" encoding="UTF-8"?>
<svg width="137px" height="168px" viewBox="0 0 137 168" version="1.1" xmlns="http://www.w3.org/2000/svg" xmlns:xlink="http://www.w3.org/1999/xlink">
    <!-- Generator: Sketch 41 (35326) - http://www.bohemiancoding.com/sketch -->
    <title>Group</title>
    <desc>Created with Sketch.</desc>
    <defs></defs>
    <g id="Account-Pages" stroke="none" stroke-width="1" fill="none" fill-rule="evenodd">
        <g id="1.3.4-my-account-empty" transform="translate(-652.000000, -669.000000)">
            <g id="Group" transform="translate(652.000000, 669.000000)">
                <path d="M66.1897,88.3298 C66.1907,88.3318 91.2827,25.8888 81.7317,1.4918 C80.1887,0.2548 54.1177,0.0088 53.0117,1.7178 C43.2427,26.7928 66.6797,89.2548 66.6767,89.3028 L66.1897,88.3298 Z" id="Fill-1" fill="#FFFFFF"></path>
                <path d="M65.6642,86.4819 C66.3012,88.2889 66.6772,89.2969 66.6762,89.3029 L66.1902,88.3299 C66.1902,88.3299 66.5912,87.3319 67.2732,85.5369" id="Stroke-3" stroke="#AAAAAA" stroke-linecap="round" stroke-linejoin="round"></path>
                <path d="M69.3949,79.7846 C75.8309,61.8366 89.1049,20.3266 81.7319,1.4926 C80.1889,0.2546 54.1179,0.0086 53.0109,1.7176 C45.0369,22.1876 59.1919,67.5756 64.6579,83.5806" id="Stroke-5" stroke="#AAAAAA" stroke-linecap="round" stroke-linejoin="round" stroke-dasharray="6.134,6.134"></path>
                <path d="M69.1093,94.4122 C60.6593,77.3132 48.2213,32.5062 48.8813,10.0322 C41.1243,12.4552 28.4403,16.1182 22.2973,19.8382 C10.7883,38.0712 0.7643,89.7922 0.5713,100.1892 C-0.0907,111.9112 3.9703,141.1792 6.8223,161.4712 C11.6523,161.3602 21.0013,160.3042 25.0563,158.8722 C23.7273,139.1302 22.4883,121.7442 22.0183,103.6802 C22.0003,103.0302 23.1483,102.3522 23.2423,101.7092 C23.3943,100.6732 22.6433,99.5652 22.8453,98.5342 C24.5613,89.7742 26.4853,82.2612 28.5003,70.4142 C32.6673,100.5372 27.7773,134.8652 25.1543,163.5082 C24.7753,167.6442 61.0473,168.2672 62.0513,166.6362 C72.3443,149.9102 69.1093,94.4122 69.1093,94.4122" id="Fill-7" fill="#FFFFFF"></path>
                <path d="M48.8665,13.0295 C48.8485,11.9925 48.8525,10.9925 48.8805,10.0325 C47.9855,10.3125 47.0245,10.6085 46.0155,10.9195" id="Stroke-9" stroke="#AAAAAA" stroke-linecap="round" stroke-linejoin="round"></path>
                <path d="M40.0841,12.7682 C33.5221,14.8592 26.4301,17.3352 22.2971,19.8382 C10.7881,38.0722 0.7651,89.7922 0.5721,100.1892 C-0.0269,110.7912 3.2371,135.7432 5.9761,155.4282" id="Stroke-11" stroke="#AAAAAA" stroke-linecap="round" stroke-linejoin="round" stroke-dasharray="6.212,6.212"></path>
                <path d="M6.4054,158.5013 C6.5464,159.5103 6.6864,160.5013 6.8224,161.4713 C7.6934,161.4513 8.7114,161.4003 9.8184,161.3223" id="Stroke-13" stroke="#AAAAAA" stroke-linecap="round" stroke-linejoin="round"></path>
                <path d="M13.9566,160.9435 C16.0416,160.7125 18.1896,160.4135 20.1266,160.0645" id="Stroke-15" stroke="#AAAAAA" stroke-linecap="round" stroke-linejoin="round" stroke-dasharray="4.154,4.154"></path>
                <path d="M22.1661,159.6598 C23.2811,159.4138 24.2691,159.1508 25.0561,158.8728 C24.9891,157.8678 24.9211,156.8708 24.8541,155.8778" id="Stroke-17" stroke="#AAAAAA" stroke-linecap="round" stroke-linejoin="round"></path>
                <path d="M24.4212,149.4624 C23.3462,133.4864 22.4122,118.8214 22.0182,103.6804 C22.0012,103.0304 23.1482,102.3524 23.2422,101.7084 C23.3942,100.6724 22.6432,99.5654 22.8452,98.5344 C24.2472,91.3794 25.7862,85.0574 27.4022,76.5254" id="Stroke-19" stroke="#AAAAAA" stroke-linecap="round" stroke-linejoin="round" stroke-dasharray="6.426,6.426"></path>
                <path d="M27.984,73.3697 C28.155,72.4137 28.328,71.4297 28.5,70.4137 C28.637,71.4007 28.764,72.3927 28.881,73.3887" id="Stroke-21" stroke="#AAAAAA" stroke-linecap="round" stroke-linejoin="round"></path>
                <path d="M29.4798,79.4387 C31.7248,107.2527 27.5188,137.6897 25.1538,163.5077 C24.7748,167.6437 61.0478,168.2667 62.0518,166.6357 C72.3438,149.9107 69.1088,94.4127 69.1088,94.4127 C61.3618,78.7347 50.2608,39.7637 48.9778,16.0707" id="Stroke-23" stroke="#AAAAAA" stroke-linecap="round" stroke-linejoin="round" stroke-dasharray="6.08,6.08"></path>
                <path d="M68.6227,96.8452 C60.0877,86.7002 46.1267,52.6092 40.8877,28.1812 C42.2867,27.2942 45.6237,24.9922 45.6237,24.9922 C43.9397,23.8312 42.7007,22.8172 40.9607,21.2662 C41.3347,18.8082 43.0937,13.3382 44.0127,10.5302 C45.8907,7.4642 50.6527,3.8582 53.0117,1.7172 C51.3087,38.3382 64.9827,83.8832 67.8927,96.8452 L68.6227,96.8452 Z" id="Fill-25" fill="#FFFFFF"></path>
                <path d="M67.1993,93.9289 C67.4703,95.0299 67.7043,96.0059 67.8933,96.8449 L68.6223,96.8449 C68.0433,96.1559 67.4383,95.3569 66.8133,94.4569" id="Stroke-27" stroke="#AAAAAA" stroke-linecap="round" stroke-linejoin="round"></path>
                <path d="M63.5318,89.17 C56.1058,76.06 47.1148,53.179 42.2858,34.133" id="Stroke-29" stroke="#AAAAAA" stroke-linecap="round" stroke-linejoin="round" stroke-dasharray="6.224,6.224"></path>
                <path d="M41.546,31.107 C41.314,30.118 41.094,29.142 40.888,28.181 C42.286,27.294 45.624,24.992 45.624,24.992 C43.94,23.831 42.701,22.818 40.961,21.266 C41.075,20.517 41.317,19.489 41.625,18.341" id="Stroke-31" stroke="#AAAAAA" stroke-linecap="round" stroke-linejoin="round"></path>
                <path d="M43.3258,12.6535 C43.5788,11.8605 43.8158,11.1335 44.0128,10.5295 C44.9828,8.9455 46.7238,7.2175 48.5048,5.6215" id="Stroke-33" stroke="#AAAAAA" stroke-linecap="round" stroke-linejoin="round" stroke-dasharray="5.934,5.934"></path>
                <path d="M50.7418,3.6791 C51.6008,2.9481 52.3898,2.2821 53.0108,1.7171 C52.9648,2.7101 52.9298,3.7081 52.9058,4.7131" id="Stroke-35" stroke="#AAAAAA" stroke-linecap="round" stroke-linejoin="round"></path>
                <path d="M52.8861,10.7564 C53.3781,41.0564 62.3951,74.9344 66.4651,91.0014" id="Stroke-37" stroke="#AAAAAA" stroke-linecap="round" stroke-linejoin="round" stroke-dasharray="6.042,6.042"></path>
                <path d="M63.7568,98.0617 C71.8528,80.7937 87.1538,32.1757 86.0318,9.7207 C93.8368,11.9837 106.5928,15.3247 112.8108,18.9187 C124.6928,36.9117 135.7028,88.4337 136.1098,98.8247 C137.0128,110.5307 133.6278,139.8567 131.1938,160.2037 C126.3618,160.1917 116.9938,159.3277 112.9098,157.9797 C113.8328,138.2147 114.7138,120.8067 114.8138,102.7367 C114.8168,102.0867 113.6558,101.4327 113.5488,100.7907 C113.3758,99.7587 114.1038,98.6357 113.8808,97.6097 C111.9848,88.8857 109.9078,81.4147 107.6488,69.6107 C104.1018,99.8137 109.3338,133.9887 112.2538,163.5087 C112.4968,165.9697 82.2708,168.0937 72.0188,167.2987 C69.9288,167.1367 63.7508,143.9287 63.7388,133.5017 C63.7178,115.4437 63.7568,98.0617 63.7568,98.0617" id="Fill-39" fill="#FFFFFF"></path>
                <path d="M86.088,12.7191 C86.098,11.6751 86.08,10.6741 86.032,9.7211 C86.933,9.9821 87.9,10.2581 88.916,10.5461" id="Stroke-41" stroke="#AAAAAA" stroke-linecap="round" stroke-linejoin="round"></path>
                <path d="M94.8858,12.2607 C101.4878,14.1977 108.6288,16.5017 112.8108,18.9187 C124.6928,36.9117 135.7028,88.4337 136.1098,98.8247 C136.9258,109.4117 134.2358,134.4107 131.9128,154.1457" id="Stroke-43" stroke="#AAAAAA" stroke-linecap="round" stroke-linejoin="round" stroke-dasharray="6.211,6.211"></path>
                <path d="M131.5487,157.2259 C131.4287,158.2369 131.3097,159.2309 131.1937,160.2039 C130.3227,160.2019 129.3037,160.1719 128.1947,160.1169" id="Stroke-45" stroke="#AAAAAA" stroke-linecap="round" stroke-linejoin="round"></path>
                <path d="M124.0499,159.8226 C121.9609,159.6336 119.8069,159.3796 117.8629,159.0706" id="Stroke-47" stroke="#AAAAAA" stroke-linecap="round" stroke-linejoin="round" stroke-dasharray="4.154,4.154"></path>
                <path d="M115.8158,158.7078 C114.6958,158.4848 113.7028,158.2418 112.9098,157.9798 C112.9568,156.9748 113.0038,155.9758 113.0508,154.9818" id="Stroke-49" stroke="#AAAAAA" stroke-linecap="round" stroke-linejoin="round"></path>
                <path d="M113.3517,148.5586 C114.0977,132.5646 114.7307,117.8826 114.8137,102.7366 C114.8167,102.0866 113.6557,101.4326 113.5487,100.7906 C113.3757,99.7586 114.1037,98.6356 113.8807,97.6096 C112.3317,90.4846 110.6627,84.1956 108.8727,75.6986" id="Stroke-51" stroke="#AAAAAA" stroke-linecap="round" stroke-linejoin="round" stroke-dasharray="6.427,6.427"></path>
                <path d="M108.2257,72.5552 C108.0347,71.6032 107.8427,70.6232 107.6487,69.6102 C107.5327,70.6002 107.4257,71.5932 107.3277,72.5912" id="Stroke-53" stroke="#AAAAAA" stroke-linecap="round" stroke-linejoin="round"></path>
                <path d="M106.8536,78.5139 C105.0966,106.4069 109.6176,136.8549 112.2536,163.5079 C112.4976,165.9699 82.2716,168.0939 72.0196,167.2989 C69.9286,167.1369 63.7506,143.9289 63.7386,133.5019 C63.7176,115.4439 63.7566,98.0619 63.7566,98.0619 C71.1936,82.1989 84.7106,39.8839 85.9926,15.6939" id="Stroke-55" stroke="#AAAAAA" stroke-linecap="round" stroke-linejoin="round" stroke-dasharray="5.944,5.944"></path>
                <path d="M64.0208,98.1932 C72.3458,87.8752 90.1468,52.2212 94.8828,27.6912 C93.4668,26.8332 90.0828,24.6002 90.0828,24.6002 C91.7418,23.4052 92.9608,22.3662 94.6678,20.7792 C94.2438,18.3292 92.3728,12.8962 91.3958,10.1082 C89.4558,7.0812 84.1338,3.5842 81.7318,1.4922 C84.1868,38.0702 66.6428,84.3122 63.9998,97.3322 L64.0208,98.1932 Z" id="Fill-57" fill="#FFFFFF"></path>
                <path d="M64.4754,95.25 C64.2854,96.016 64.1254,96.712 64.0004,97.332 L64.0204,98.193 C64.5774,97.503 65.1774,96.699 65.8124,95.792" id="Stroke-59" stroke="#AAAAAA" stroke-linecap="round" stroke-linejoin="round"></path>
                <path d="M69.327,90.3362 C77.468,76.8212 88.563,53.0602 93.505,33.7822" id="Stroke-61" stroke="#AAAAAA" stroke-linecap="round" stroke-linejoin="round" stroke-dasharray="6.492,6.492"></path>
                <path d="M94.2664,30.6277 C94.4914,29.6337 94.6974,28.6537 94.8824,27.6917 C93.4664,26.8327 90.0824,24.6007 90.0824,24.6007 C91.7424,23.4047 92.9604,22.3657 94.6674,20.7787 C94.5384,20.0327 94.2754,19.0097 93.9434,17.8677" id="Stroke-63" stroke="#AAAAAA" stroke-linecap="round" stroke-linejoin="round"></path>
                <path d="M92.088,12.1043 C91.833,11.3603 91.596,10.6783 91.396,10.1083 C90.377,8.5193 88.427,6.8003 86.456,5.2233" id="Stroke-65" stroke="#AAAAAA" stroke-linecap="round" stroke-linejoin="round" stroke-dasharray="6.053,6.053"></path>
                <path d="M84.0746,3.3661 C83.1706,2.6691 82.3536,2.0331 81.7316,1.4921 C81.7986,2.4831 81.8506,3.4811 81.8886,4.4861" id="Stroke-67" stroke="#AAAAAA" stroke-linecap="round" stroke-linejoin="round"></path>
                <path d="M81.9515,10.6737 C81.4675,41.5137 69.6255,76.4257 65.2635,92.2597" id="Stroke-69" stroke="#AAAAAA" stroke-linecap="round" stroke-linejoin="round" stroke-dasharray="6.187,6.187"></path>
                <path d="M52.9583,20.3917 L50.4623,22.0557" id="Stroke-71" stroke="#AAAAAA" stroke-linecap="round" stroke-linejoin="round"></path>
                <path d="M48.0016,23.6953 L45.5056,25.3593" id="Stroke-73" stroke="#AAAAAA" stroke-linecap="round" stroke-linejoin="round"></path>
                <path d="M89.8722,24.7572 L87.3772,23.0912" id="Stroke-75" stroke="#AAAAAA" stroke-linecap="round" stroke-linejoin="round"></path>
                <path d="M84.516,21.1806 L82.021,19.5146" id="Stroke-77" stroke="#AAAAAA" stroke-linecap="round" stroke-linejoin="round"></path>
                <path d="M81.5526,9.1187 C81.0246,8.7697 80.0126,8.4667 78.7086,8.2147" id="Stroke-79" stroke="#AAAAAA" stroke-linecap="round" stroke-linejoin="round"></path>
                <path d="M71.2201,7.4202 C69.9411,7.3582 68.6661,7.3262 67.4701,7.3262 C65.2821,7.3262 62.4861,7.4692 59.9421,7.7532" id="Stroke-81" stroke="#AAAAAA" stroke-linecap="round" stroke-linejoin="round" stroke-dasharray="7.53,7.53"></path>
                <path d="M56.2179,8.3287 C54.9159,8.6077 53.9049,8.9437 53.4129,9.3387" id="Stroke-83" stroke="#AAAAAA" stroke-linecap="round" stroke-linejoin="round"></path>
            </g>
        </g>
    </g>
</svg>